<svg width="178" height="178" viewBox="0 0 178 178" fill="none" xmlns="http://www.w3.org/2000/svg">
<g filter="url(#filter0_d_14_28)">
<path d="M32.5384 58.3143C27.9528 52.5123 31.5938 43.9345 38.9529 43.2028C44.4118 42.66 48.2345 37.5586 47.2227 32.1669C45.8586 24.8984 53.0689 18.9952 59.9251 21.7672C65.011 23.8235 70.7666 21.0829 72.3762 15.8386C74.5462 8.76874 83.674 6.89252 88.4566 12.5333C92.0043 16.7175 98.3743 16.9656 102.237 13.0701C107.444 7.81845 116.398 10.399 118.011 17.6163C119.208 22.9699 124.733 26.1499 129.963 24.4955C137.015 22.2652 143.744 28.7114 141.818 35.8518C140.39 41.1484 143.805 46.5317 149.205 47.4975C156.485 48.7995 159.447 57.6345 154.424 63.0623C150.698 67.0885 151.22 73.4418 155.552 76.8066C161.393 81.3426 159.911 90.5425 152.941 93.0141C147.77 94.8475 145.279 100.716 147.552 105.708C150.616 112.439 145.028 119.896 137.708 118.846C132.278 118.066 127.345 122.105 127.037 127.582C126.622 134.966 118.209 138.972 112.215 134.639C107.769 131.426 101.525 132.709 98.707 137.416C94.9081 143.761 85.5966 143.398 82.3028 136.777C79.8595 131.865 73.7341 130.1 69.0516 132.958C62.7392 136.811 54.6628 132.162 54.8234 124.769C54.9426 119.284 50.3392 114.875 44.8648 115.229C37.4849 115.707 32.4939 107.838 36.0721 101.366C38.7264 96.5649 36.6996 90.5209 31.6875 88.2908C24.9308 85.2845 24.1685 75.9971 30.3446 71.9292C34.9259 68.9117 35.94 62.6182 32.5384 58.3143Z" fill="url(#paint0_linear_14_28)"/>
</g>
<defs>
<filter id="filter0_d_14_28" x="1.54972e-05" y="9.53674e-07" width="177.62" height="177.324" filterUnits="userSpaceOnUse" color-interpolation-filters="sRGB">
<feFlood flood-opacity="0" result="BackgroundImageFix"/>
<feColorMatrix in="SourceAlpha" type="matrix" values="0 0 0 0 0 0 0 0 0 0 0 0 0 0 0 0 0 0 127 0" result="hardAlpha"/>
<feOffset dx="-3.84326" dy="13.0671"/>
<feGaussianBlur stdDeviation="11.1454"/>
<feComposite in2="hardAlpha" operator="out"/>
<feColorMatrix type="matrix" values="0 0 0 0 0.0775104 0 0 0 0 0.241623 0 0 0 0 0.157958 0 0 0 0.46 0"/>
<feBlend mode="normal" in2="BackgroundImageFix" result="effect1_dropShadow_14_28"/>
<feBlend mode="normal" in="SourceGraphic" in2="effect1_dropShadow_14_28" result="shape"/>
</filter>
<linearGradient id="paint0_linear_14_28" x1="144.931" y1="13.3239" x2="104.383" y2="123.523" gradientUnits="userSpaceOnUse">
<stop stop-color="#237249"/>
<stop offset="1" stop-color="#35C66B"/>
</linearGradient>
</defs>
</svg>
